<svg id="Layer_1" data-name="Layer 1" xmlns="http://www.w3.org/2000/svg" viewBox="0 0 635.23 90.4"><defs><style>.cls-1{fill:#2c333a;}.cls-2{fill:#00838f;}</style></defs><path class="cls-1" d="M121.43,51.2V81.3H103v-27c0-7.6-3.3-10.8-8.6-10.8-5.9,0-10.5,3.7-10.5,12.4V81.3H65.33V28.7h17.6v5.7c4.2-4.4,10.1-6.6,16.7-6.6,12.3.1,21.8,7.1,21.8,23.4m7.3,25.6,5.5-12.6a37,37,0,0,0,18.3,4.9c6.2,0,8.3-1.4,8.3-3.6,0-7.1-31.1,1-31.1-20.1,0-9.9,9.1-17.5,25.6-17.5,7.4,0,15.5,1.6,20.8,4.5l-5.5,12.5a30.89,30.89,0,0,0-15.1-3.9c-6.2,0-8.4,1.7-8.4,3.7,0,7.3,31-.6,31,20.3,0,9.7-8.9,17.3-26,17.3-9-.1-18.2-2.3-23.4-5.5m93.6,2.4c-3.2,2-8,3-12.8,3-13.5,0-21.4-6.6-21.4-20.1V44.5h-7.6V30.7h7.7V17h18.4V30.7h12V44.5h-12V62c0,3.9,2.2,6,5.5,6a10.49,10.49,0,0,0,5.6-1.6Zm5-66.1c0-5.5,4.5-9.8,11.3-9.8s11.3,4,11.3,9.5c0,5.8-4.5,10.1-11.3,10.1s-11.3-4.3-11.3-9.8m2.1,15.6h18.4V81.3h-18.4Zm86.4,22.5V81.3h-18.4v-27c0-7.6-3.3-10.8-8.6-10.8-5.9,0-10.5,3.7-10.5,12.4V81.3h-18.4V28.7h17.6v5.7c4.2-4.4,10.1-6.6,16.7-6.6,12.2.1,21.6,7.1,21.6,23.4m9,3.7c0-15.8,12.5-27.1,30.2-27.1,11.9,0,21.1,5.3,24.7,14.5l-14.3,7.3c-2.5-4.9-6.2-7.1-10.5-7.1-6.4,0-11.5,4.5-11.5,12.4,0,8.2,5,12.6,11.5,12.6,4.3,0,8-2.1,10.5-7.1l14.3,7.3c-3.6,9.1-12.7,14.5-24.7,14.5-17.7,0-30.2-11.2-30.2-27.3m99,24.3c-3.2,2-8,3-12.8,3-13.5,0-21.4-6.6-21.4-20.1V44.5h-7.7V30.7h7.7V17H408V30.7h12V44.5H408V62c0,3.9,2.2,6,5.5,6a10.49,10.49,0,0,0,5.6-1.6l4.7,12.8Z"/><path class="cls-2" d="M496.43,13.4V81.3h-19.2V54.8H451V81.3h-19.2V13.4H451V38.9h26.2V13.4Zm68.1,15.3V81.3h-17.6V75.7a20.61,20.61,0,0,1-15.6,6.5c-12.9,0-22.3-7.4-22.3-24.1V28.7h18.4V55.1c0,8.2,3.2,11.4,8.7,11.4s9.9-3.6,9.9-12.4V28.7Z"/><path class="cls-2" d="M635.23,54.9c0,16.8-11.6,27.3-25.8,27.3-6.9,0-12-1.9-15.5-6.1v5.2h-17.6V9.3h18.4v24c3.6-3.7,8.5-5.4,14.7-5.4,14.3,0,25.8,10.3,25.8,27m-18.6,0c0-8-4.9-12.4-11.1-12.4s-11.1,4.5-11.1,12.4c0,8.1,4.9,12.6,11.1,12.6s11.1-4.5,11.1-12.6M12.1,34.4a16.64,16.64,0,0,1-.33-3.3A16.38,16.38,0,0,1,28.13,14.74a16,16,0,0,1,3.16.31L30.14,21A10.38,10.38,0,0,0,17.78,31.12,10.51,10.51,0,0,0,18,33.21l-5.9,1.2Z"/><path class="cls-2" d="M28.08,58.5A27.35,27.35,0,1,1,55.43,31.15,27.37,27.37,0,0,1,28.08,58.5Zm0-48.7A21.35,21.35,0,1,0,49.43,31.15,21.39,21.39,0,0,0,28.08,9.8Z"/><path class="cls-1" d="M15.73,40.5h24.7V79.8H15.73Z"/></svg>